<svg xmlns="http://www.w3.org/2000/svg" width="320" height="320" viewBox="0 0 320 320">
  <g fill="none" stroke="#8f9ca3" stroke-opacity=".26" stroke-width="1.2">
    <path d="M-12 62c26 10 49 10 71 0 23-10 45-10 68 0 22 10 45 10 67 0 23-10 46-10 69 0s47 10 69 0"/>
    <path d="M-20 92c30 12 57 12 84 0 26-12 53-12 80 0s53 12 80 0 54-12 81 0 54 12 81 0"/>
    <path d="M-28 122c33 13 63 13 94 0 30-13 61-13 92 0s62 13 92 0 61-13 92 0 61 13 92 0"/>
    <path d="M-12 154c25 10 49 10 74 0s49-10 74 0 48 10 73 0 49-10 74 0 49 10 74 0"/>
    <path d="M-24 186c30 12 58 12 87 0 28-12 56-12 84 0 29 12 58 12 87 0 28-12 56-12 84 0 29 12 58 12 87 0"/>
    <path d="M-16 218c27 11 52 11 78 0s52-11 78 0 52 11 78 0 52-11 78 0 52 11 78 0"/>
    <path d="M-30 250c34 14 66 14 99 0 34-14 67-14 100 0 34 14 67 14 101 0 33-14 66-14 99 0 34 14 67 14 101 0"/>
  </g>
</svg>
